<svg xmlns="http://www.w3.org/2000/svg" width="14" height="15" viewBox="0 0 14 15"><g><g><g><path fill="#a8a8a8" d="M6.35 10.62V6.433h1.395v4.187z"/></g><g><path fill="#a8a8a8" d="M7.047 12.749A5.645 5.645 0 0 1 1.41 7.11a5.645 5.645 0 0 1 5.638-5.638 5.645 5.645 0 0 1 5.638 5.638 5.645 5.645 0 0 1-5.638 5.638zm0-12.686A7.045 7.045 0 0 0 0 7.111a7.045 7.045 0 0 0 7.047 7.047 7.045 7.045 0 0 0 7.048-7.047A7.045 7.045 0 0 0 7.047.063z"/></g><g><path fill="#a8a8a8" d="M6.35 4.987V3.59h1.395v1.396z"/></g></g></g></svg>