<svg xmlns="http://www.w3.org/2000/svg" width="1920" height="199" viewBox="0 0 1920 199">
  <g id="style_08" transform="translate(0 -276)">
    <rect id="Rectangle_63" data-name="Rectangle 63" width="1920" height="198" transform="translate(0 276)" fill="#e0efff"/>
    <rect id="Rectangle_64" data-name="Rectangle 64" width="1920" height="59" transform="translate(0 416)" fill="#032e5b"/>
    <path id="Path_4" data-name="Path 4" d="M1.44-14.668H6.784V9.889H19.318V14.6H1.44ZM36.41,15.076a15.486,15.486,0,0,1-7.78-1.984,14.535,14.535,0,0,1-5.5-5.442,15.078,15.078,0,0,1-2-7.7,15.078,15.078,0,0,1,2-7.7,14.392,14.392,0,0,1,5.5-5.422,15.608,15.608,0,0,1,7.78-1.965,15.608,15.608,0,0,1,7.78,1.965,14.534,14.534,0,0,1,5.52,5.419,14.965,14.965,0,0,1,2.024,7.7,14.965,14.965,0,0,1-2.024,7.7,14.68,14.68,0,0,1-5.521,5.442,15.486,15.486,0,0,1-7.779,1.987ZM26.469-.052a10.742,10.742,0,0,0,1.3,5.265,9.408,9.408,0,0,0,3.556,3.674,10.493,10.493,0,0,0,10.177,0,9.408,9.408,0,0,0,3.556-3.674,10.742,10.742,0,0,0,1.3-5.265,10.631,10.631,0,0,0-1.3-5.245A9.444,9.444,0,0,0,41.5-8.951a9.92,9.92,0,0,0-5.088-1.316,9.92,9.92,0,0,0-5.088,1.316A9.444,9.444,0,0,0,27.766-5.3a10.631,10.631,0,0,0-1.3,5.248ZM70.358,15.076a14.658,14.658,0,0,1-7.5-1.965,14.069,14.069,0,0,1-5.3-5.422A15.638,15.638,0,0,1,55.624-.052a15.766,15.766,0,0,1,1.906-7.74,13.915,13.915,0,0,1,5.226-5.4,14.531,14.531,0,0,1,7.485-1.945,14.345,14.345,0,0,1,5.54,1.041,12.952,12.952,0,0,1,4.263,2.79,10.717,10.717,0,0,1,2.534,3.87L77.824-5.16a7.731,7.731,0,0,0-2.849-3.713,8.022,8.022,0,0,0-4.735-1.395,9.188,9.188,0,0,0-4.833,1.277,8.559,8.559,0,0,0-3.281,3.6A11.8,11.8,0,0,0,60.968-.052a11.594,11.594,0,0,0,1.2,5.363,8.749,8.749,0,0,0,3.34,3.615,9.291,9.291,0,0,0,4.85,1.274A9.55,9.55,0,0,0,74.5,9.3a7.408,7.408,0,0,0,3.025-2.554,6.625,6.625,0,0,0,1.12-3.811V2.817h-8.4V-1.7H83.993V1.245A14.1,14.1,0,0,1,82.087,8.73a12.561,12.561,0,0,1-5.029,4.735,14.406,14.406,0,0,1-6.7,1.611Zm32.3,0a15.486,15.486,0,0,1-7.78-1.984,14.535,14.535,0,0,1-5.5-5.442,15.078,15.078,0,0,1-2-7.7,15.078,15.078,0,0,1,2-7.7,14.392,14.392,0,0,1,5.5-5.422,16.386,16.386,0,0,1,15.56,0,14.534,14.534,0,0,1,5.521,5.422,14.965,14.965,0,0,1,2.024,7.7,14.965,14.965,0,0,1-2.024,7.7,14.68,14.68,0,0,1-5.521,5.442,15.486,15.486,0,0,1-7.781,1.984ZM92.716-.052a10.742,10.742,0,0,0,1.3,5.265,9.408,9.408,0,0,0,3.556,3.674,10.493,10.493,0,0,0,10.177,0A9.408,9.408,0,0,0,111.3,5.213a10.742,10.742,0,0,0,1.3-5.265A10.631,10.631,0,0,0,111.3-5.3a9.444,9.444,0,0,0-3.556-3.654,9.92,9.92,0,0,0-5.088-1.316,9.92,9.92,0,0,0-5.088,1.316A9.444,9.444,0,0,0,94.012-5.3a10.631,10.631,0,0,0-1.3,5.248Z" transform="translate(390.56 346.14)" fill="#032e5b"/>
    <g id="Group_3" data-name="Group 3" transform="translate(-262 56)">
      <rect id="Rectangle_65" data-name="Rectangle 65" width="45" height="12" rx="6" transform="translate(654 384)" fill="#fde433"/>
      <rect id="Rectangle_66" data-name="Rectangle 66" width="89" height="12" rx="6" transform="translate(742 384)" fill="#e0efff" opacity="0.5"/>
      <rect id="Rectangle_67" data-name="Rectangle 67" width="86" height="12" rx="6" transform="translate(858 384)" fill="#e0efff" opacity="0.5"/>
      <rect id="Rectangle_68" data-name="Rectangle 68" width="66" height="12" rx="6" transform="translate(969 384)" fill="#e0efff" opacity="0.5"/>
      <rect id="Rectangle_69" data-name="Rectangle 69" width="60" height="12" rx="6" transform="translate(1063 384)" fill="#e0efff" opacity="0.5"/>
      <rect id="Rectangle_70" data-name="Rectangle 70" width="97" height="12" rx="6" transform="translate(1151 384)" fill="#e0efff" opacity="0.5"/>
      <rect id="Rectangle_71" data-name="Rectangle 71" width="91" height="12" rx="6" transform="translate(1275 384)" fill="#e0efff" opacity="0.5"/>
    </g>
    <rect id="Rectangle_72" data-name="Rectangle 72" width="20" height="20" rx="10" transform="translate(763 326)" fill="#032e5b"/>
    <rect id="Rectangle_73" data-name="Rectangle 73" width="161" height="12" rx="6" transform="translate(790 330)" fill="#032e5b" opacity="0.5"/>
    <rect id="Rectangle_74" data-name="Rectangle 74" width="150" height="12" rx="6" transform="translate(790 349)" fill="#032e5b" opacity="0.5"/>
    <rect id="Rectangle_75" data-name="Rectangle 75" width="20" height="20" rx="10" transform="translate(1064 326)" fill="#032e5b"/>
    <rect id="Rectangle_76" data-name="Rectangle 76" width="140" height="12" rx="6" transform="translate(1091 330)" fill="#032e5b" opacity="0.5"/>
    <rect id="Rectangle_77" data-name="Rectangle 77" width="92" height="12" rx="6" transform="translate(1091 349)" fill="#032e5b" opacity="0.5"/>
    <rect id="Rectangle_79" data-name="Rectangle 79" width="20" height="20" rx="10" transform="translate(1370 326)" fill="#032e5b"/>
    <rect id="Rectangle_80" data-name="Rectangle 80" width="123" height="16" rx="8" transform="translate(1397 330)" fill="#032e5b" opacity="0.5"/>
    <rect id="Rectangle_81" data-name="Rectangle 81" width="112" height="8" rx="4" transform="translate(1397 353)" fill="#032e5b" opacity="0.5"/>
    <rect id="Rectangle_84" data-name="Rectangle 84" width="23" height="22" rx="11" transform="translate(1497 435)" fill="#e0efff" opacity="0.5"/>
  </g>
</svg>
