<svg xmlns="http://www.w3.org/2000/svg" width="297" height="976" viewBox="0 0 297 976">
  <g id="style_11" transform="translate(-328 -1403)">
    <rect id="Rectangle_143" data-name="Rectangle 143" width="297" height="976" transform="translate(328 1403)" fill="#032e5b"/>
    <g id="Group_9" data-name="Group 9" transform="translate(-287 1125)">
      <rect id="Rectangle_144" data-name="Rectangle 144" width="45" height="12" rx="6" transform="translate(654 384)" fill="#e0efff"/>
      <rect id="Rectangle_145" data-name="Rectangle 145" width="57" height="12" rx="6" transform="translate(654 426)" fill="#e0efff" opacity="0.5"/>
      <rect id="Rectangle_146" data-name="Rectangle 146" width="45" height="12" rx="6" transform="translate(654 468)" fill="#e0efff" opacity="0.5"/>
      <rect id="Rectangle_147" data-name="Rectangle 147" width="47" height="12" rx="6" transform="translate(654 510)" fill="#e0efff" opacity="0.5"/>
      <rect id="Rectangle_148" data-name="Rectangle 148" width="55" height="12" rx="6" transform="translate(654 552)" fill="#e0efff" opacity="0.5"/>
      <rect id="Rectangle_149" data-name="Rectangle 149" width="109" height="12" rx="6" transform="translate(654 594)" fill="#e0efff" opacity="0.5"/>
      <rect id="Rectangle_150" data-name="Rectangle 150" width="91" height="12" rx="6" transform="translate(654 636)" fill="#e0efff" opacity="0.5"/>
      <rect id="Rectangle_151" data-name="Rectangle 151" width="58" height="12" rx="6" transform="translate(654 678)" fill="#e0efff" opacity="0.5"/>
      <rect id="Rectangle_152" data-name="Rectangle 152" width="83" height="12" rx="6" transform="translate(654 720)" fill="#e0efff" opacity="0.5"/>
    </g>
    <rect id="Rectangle_157" data-name="Rectangle 157" width="152" height="12" rx="6" transform="translate(367 2320)" fill="#e0efff" opacity="0.5"/>
    <rect id="Rectangle_158" data-name="Rectangle 158" width="191" height="12" rx="6" transform="translate(367 2296)" fill="#e0efff" opacity="0.5"/>
    <rect id="Rectangle_159" data-name="Rectangle 159" width="218" height="59" transform="translate(367 1904)" fill="#fde433"/>
    <rect id="Rectangle_160" data-name="Rectangle 160" width="146" height="12" rx="6" transform="translate(403 1928)" fill="#032e5b"/>
    <g id="Group_10" data-name="Group 10" transform="translate(10.789 5.289)">
      <rect id="Rectangle_161" data-name="Rectangle 161" width="4" height="35" transform="translate(337.211 1420.54) rotate(-45)" fill="#fff"/>
      <rect id="Rectangle_162" data-name="Rectangle 162" width="4" height="35" transform="translate(340.04 1445.289) rotate(-135)" fill="#fff"/>
    </g>
    <rect id="Rectangle_217" data-name="Rectangle 217" width="20" height="20" rx="10" transform="translate(421 2249)" fill="#e0efff"/>
    <rect id="Rectangle_218" data-name="Rectangle 218" width="20" height="20" rx="10" transform="translate(513 2249)" fill="#e0efff"/>
    <rect id="Rectangle_219" data-name="Rectangle 219" width="20" height="20" rx="10" transform="translate(467 2249)" fill="#e0efff"/>
  </g>
</svg>
