<svg xmlns="http://www.w3.org/2000/svg" width="1920" height="149" viewBox="0 0 1920 149">
  <g id="style_06" transform="translate(0 -276)">
    <rect id="Rectangle_109" data-name="Rectangle 109" width="1920" height="59" transform="translate(0 276)" fill="#032e5b"/>
    <rect id="Rectangle_110" data-name="Rectangle 110" width="1136" height="90" transform="translate(392 335)" fill="#032e5b"/>
    <path id="Path_6" data-name="Path 6" d="M1.44-14.668H6.784V9.889H19.318V14.6H1.44ZM36.41,15.076a15.486,15.486,0,0,1-7.78-1.984,14.535,14.535,0,0,1-5.5-5.442,15.078,15.078,0,0,1-2-7.7,15.078,15.078,0,0,1,2-7.7,14.392,14.392,0,0,1,5.5-5.422,15.608,15.608,0,0,1,7.78-1.965,15.608,15.608,0,0,1,7.78,1.965,14.534,14.534,0,0,1,5.52,5.419,14.965,14.965,0,0,1,2.024,7.7,14.965,14.965,0,0,1-2.024,7.7,14.68,14.68,0,0,1-5.521,5.442,15.486,15.486,0,0,1-7.779,1.987ZM26.469-.052a10.742,10.742,0,0,0,1.3,5.265,9.408,9.408,0,0,0,3.556,3.674,10.493,10.493,0,0,0,10.177,0,9.408,9.408,0,0,0,3.556-3.674,10.742,10.742,0,0,0,1.3-5.265,10.631,10.631,0,0,0-1.3-5.245A9.444,9.444,0,0,0,41.5-8.951a9.92,9.92,0,0,0-5.088-1.316,9.92,9.92,0,0,0-5.088,1.316A9.444,9.444,0,0,0,27.766-5.3a10.631,10.631,0,0,0-1.3,5.248ZM70.358,15.076a14.658,14.658,0,0,1-7.5-1.965,14.069,14.069,0,0,1-5.3-5.422A15.638,15.638,0,0,1,55.624-.052a15.766,15.766,0,0,1,1.906-7.74,13.915,13.915,0,0,1,5.226-5.4,14.531,14.531,0,0,1,7.485-1.945,14.345,14.345,0,0,1,5.54,1.041,12.952,12.952,0,0,1,4.263,2.79,10.717,10.717,0,0,1,2.534,3.87L77.824-5.16a7.731,7.731,0,0,0-2.849-3.713,8.022,8.022,0,0,0-4.735-1.395,9.188,9.188,0,0,0-4.833,1.277,8.559,8.559,0,0,0-3.281,3.6A11.8,11.8,0,0,0,60.968-.052a11.594,11.594,0,0,0,1.2,5.363,8.749,8.749,0,0,0,3.34,3.615,9.291,9.291,0,0,0,4.85,1.274A9.55,9.55,0,0,0,74.5,9.3a7.408,7.408,0,0,0,3.025-2.554,6.625,6.625,0,0,0,1.12-3.811V2.817h-8.4V-1.7H83.993V1.245A14.1,14.1,0,0,1,82.087,8.73a12.561,12.561,0,0,1-5.029,4.735,14.406,14.406,0,0,1-6.7,1.611Zm32.3,0a15.486,15.486,0,0,1-7.78-1.984,14.535,14.535,0,0,1-5.5-5.442,15.078,15.078,0,0,1-2-7.7,15.078,15.078,0,0,1,2-7.7,14.392,14.392,0,0,1,5.5-5.422,16.386,16.386,0,0,1,15.56,0,14.534,14.534,0,0,1,5.521,5.422,14.965,14.965,0,0,1,2.024,7.7,14.965,14.965,0,0,1-2.024,7.7,14.68,14.68,0,0,1-5.521,5.442,15.486,15.486,0,0,1-7.781,1.984ZM92.716-.052a10.742,10.742,0,0,0,1.3,5.265,9.408,9.408,0,0,0,3.556,3.674,10.493,10.493,0,0,0,10.177,0A9.408,9.408,0,0,0,111.3,5.213a10.742,10.742,0,0,0,1.3-5.265A10.631,10.631,0,0,0,111.3-5.3a9.444,9.444,0,0,0-3.556-3.654,9.92,9.92,0,0,0-5.088-1.316,9.92,9.92,0,0,0-5.088,1.316A9.444,9.444,0,0,0,94.012-5.3a10.631,10.631,0,0,0-1.3,5.248Z" transform="translate(430.56 380.032)" fill="#e0efff"/>
    <g id="Group_7" data-name="Group 7" transform="translate(164 -10)">
      <rect id="Rectangle_111" data-name="Rectangle 111" width="45" height="12" rx="6" transform="translate(654 384)" fill="#e0efff"/>
      <rect id="Rectangle_112" data-name="Rectangle 112" width="57" height="12" rx="6" transform="translate(731 384)" fill="#e0efff" opacity="0.5"/>
      <rect id="Rectangle_113" data-name="Rectangle 113" width="45" height="12" rx="6" transform="translate(820 384)" fill="#e0efff" opacity="0.5"/>
      <rect id="Rectangle_114" data-name="Rectangle 114" width="47" height="12" rx="6" transform="translate(897 384)" fill="#e0efff" opacity="0.5"/>
      <rect id="Rectangle_115" data-name="Rectangle 115" width="55" height="12" rx="6" transform="translate(976 384)" fill="#e0efff" opacity="0.5"/>
      <rect id="Rectangle_116" data-name="Rectangle 116" width="149" height="12" rx="6" transform="translate(1063 384)" fill="#e0efff" opacity="0.5"/>
      <rect id="Rectangle_117" data-name="Rectangle 117" width="91" height="12" rx="6" transform="translate(1233 384)" fill="#e0efff" opacity="0.5"/>
    </g>
    <rect id="Rectangle_118" data-name="Rectangle 118" width="89" height="12" rx="6" transform="translate(392 300)" fill="#e0efff" opacity="0.5"/>
    <rect id="Rectangle_119" data-name="Rectangle 119" width="20" height="20" rx="10" transform="translate(538 296)" fill="#fde433"/>
    <rect id="Rectangle_120" data-name="Rectangle 120" width="90" height="12" rx="6" transform="translate(565 300)" fill="#e0efff" opacity="0.5"/>
    <rect id="Rectangle_121" data-name="Rectangle 121" width="20" height="20" rx="10" transform="translate(720 296)" fill="#fde433"/>
    <rect id="Rectangle_122" data-name="Rectangle 122" width="157" height="12" rx="6" transform="translate(747 300)" fill="#e0efff" opacity="0.5"/>
    <rect id="Rectangle_123" data-name="Rectangle 123" width="20" height="20" rx="10" transform="translate(983 296)" fill="#fde433"/>
    <rect id="Rectangle_124" data-name="Rectangle 124" width="288" height="12" rx="6" transform="translate(1010 300)" fill="#e0efff" opacity="0.5"/>
    <rect id="Rectangle_125" data-name="Rectangle 125" width="20" height="20" rx="10" transform="translate(1499 296)" fill="#e0efff"/>
  </g>
</svg>
