<svg width="171" height="41" viewBox="0 0 171 41" fill="none" xmlns="http://www.w3.org/2000/svg">
<g clip-path="url(#clip0_200_264)">
<path d="M145.6 38.6C144.1 40.1 141.8 40.9 138.5 40.9C135.3 40.9 132.7 40.2 130.4 39L132.2 35.2C133.9 36.2 135.7 36.7 137.9 36.7C140.7 36.7 142.2 35.3 142.2 32.7V32.1C141.1 33.4 139.6 34.5 137.2 34.5C133.2 34.5 130 31.6 130 26.9C130 22.2 133.3 19.3 137 19.3C139.4 19.3 140.9 20.3 142.1 21.6V19.7H147.8V32C147.7 35.1 147 37.1 145.6 38.6ZM138.7 23.8C136.8 23.8 135.4 25.2 135.4 27C135.4 28.8 136.8 30.1 138.7 30.1C140.6 30.1 142 28.7 142 26.9C142 25.2 140.7 23.8 138.7 23.8ZM123 27.2C123 25.4 122.1 24.5 120.7 24.5C119.3 24.5 118.3 25.5 118.3 27.2V36H112.6V19.8H118.3V22.1C119.4 20.7 120.9 19.5 123.2 19.5C126.6 19.5 128.7 21.8 128.7 25.5V36.1H123V27.2ZM104.8 14.1H110.7V18.3H104.8V14.1ZM99.7999 29.8C99.7999 30.9 100.3 31.4 101.4 31.4C102.2 31.4 102.9 31.2 103.6 30.9V35.4C102.6 36 101.2 36.3 99.5999 36.3C96.1999 36.3 94.0999 34.8 94.0999 30.9V24.3H92.1999V19.7H94.0999V15.6H99.7999V19.7H103.6V24.3H99.7999V29.8ZM85.3999 14.1H91.0999V36H85.3999V14.1ZM77.6999 33.8C76.6999 35.1 75.1999 36.4 72.7999 36.4C69.3999 36.4 67.2999 34.1 67.2999 30.4V19.8H72.9999V28.6C72.9999 30.4 73.8999 31.3 75.2999 31.3C76.6999 31.3 77.6999 30.3 77.6999 28.6V19.8H83.3999V36H77.6999V33.8ZM66.2999 30.9C66.2999 34.5 63.5999 36.3 59.6999 36.3C56.9999 36.3 54.2999 35.5 51.9999 33.9L54.0999 30.4C55.9999 31.6 57.9999 32.3 59.6999 32.3C60.6999 32.3 61.0999 32 61.0999 31.4C61.0999 30.8 60.1999 30.5 58.4999 30C55.2999 29.1 52.6999 28.1 52.6999 24.7C52.6999 21.3 55.4999 19.3 59.1999 19.3C61.5999 19.3 63.9999 20 65.8999 21.2L63.9999 24.8C62.2999 23.9 60.4999 23.3 59.1999 23.3C58.2999 23.3 57.8999 23.6 57.8999 24.1C57.8999 24.7 58.7999 25 60.4999 25.5C63.7999 26.6 66.2999 27.7 66.2999 30.9ZM45.7999 27.2C45.7999 25.4 44.8999 24.5 43.4999 24.5C42.0999 24.5 41.0999 25.5 41.0999 27.2V36H35.3999V19.8H41.0999V22.1C42.1999 20.7 43.6999 19.5 45.9999 19.5C49.3999 19.5 51.4999 21.8 51.4999 25.5V36.1H45.7999V27.2ZM25.1999 36.4C19.9999 36.4 16.2999 32.6 16.2999 27.9C16.2999 23.3 20.0999 19.4 25.2999 19.4C30.4999 19.4 34.1999 23.2 34.1999 27.9C34.1999 32.5 30.3999 36.4 25.1999 36.4ZM25.1999 24.2C23.0999 24.2 21.7999 25.8 21.7999 27.9C21.7999 29.9 23.1999 31.6 25.2999 31.6C27.3999 31.6 28.6999 29.9 28.6999 27.9C28.6999 25.9 27.1999 24.2 25.1999 24.2ZM9.69992 24.2C7.59992 24.2 6.3999 25.8 6.3999 27.9C6.3999 30 7.69991 31.6 9.59991 31.6C10.9999 31.6 11.7999 30.9 12.6999 29.9L16.5999 32.7C15.0999 34.9 12.8999 36.4 9.3999 36.4C4.4999 36.4 0.899902 32.6 0.899902 27.9C0.899902 23.3 4.49991 19.4 9.59991 19.4C12.8999 19.4 15.0999 20.8 16.4999 23L12.6999 25.8C11.8999 24.7 10.9999 24.2 9.69992 24.2ZM110.6 36H104.9V19.8H110.6V36Z" fill="white"/>
<path d="M138 0H171L162 15H130L138 0Z" fill="#F05836"/>
<path d="M156.3 9.39999H155.3V11.4H153.4V4.39999H156.4C158.2 4.39999 159.3 5.29999 159.3 6.89999C159.3 8.49999 158 9.39999 156.3 9.39999ZM156.2 6H155.3V7.80002H156.2C156.9 7.80002 157.3 7.39999 157.3 6.89999C157.3 6.29999 156.9 6 156.2 6ZM148.8 11.4L147.4 7.39999L146 11.4H144.3L142 4.39999H144L145.2 8.39999L146.5 4.30002H148.2L149.5 8.39999L150.7 4.39999H152.7L150.4 11.4H148.8Z" fill="white"/>
</g>
<defs>
<clipPath id="clip0_200_264">
<rect width="171" height="41" fill="white"/>
</clipPath>
</defs>
</svg>
