<?xml version="1.0" encoding="utf-8"?>
<!-- Generator: Adobe Illustrator 25.4.0, SVG Export Plug-In . SVG Version: 6.00 Build 0)  -->
<svg version="1.1" id="Layer_1" xmlns="http://www.w3.org/2000/svg" xmlns:xlink="http://www.w3.org/1999/xlink" x="0px" y="0px"
	 viewBox="0 0 171 41" style="enable-background:new 0 0 171 41;" xml:space="preserve">
<style type="text/css">
	.st0{fill:#333333;}
	.st1{fill:#F36438;}
	.st2{fill:#FFFFFF;}
</style>
<path class="st0" d="M145.6,38.6c-1.5,1.5-3.8,2.3-7.1,2.3c-3.2,0-5.8-0.7-8.1-1.9l1.8-3.8c1.7,1,3.5,1.5,5.7,1.5
	c2.8,0,4.3-1.4,4.3-4v-0.6c-1.1,1.3-2.6,2.4-5,2.4c-4,0-7.2-2.9-7.2-7.6s3.3-7.6,7-7.6c2.4,0,3.9,1,5.1,2.3v-1.9h5.7V32
	C147.7,35.1,147,37.1,145.6,38.6z M138.7,23.8c-1.9,0-3.3,1.4-3.3,3.2c0,1.8,1.4,3.1,3.3,3.1c1.9,0,3.3-1.4,3.3-3.2
	C142,25.2,140.7,23.8,138.7,23.8z M123,27.2c0-1.8-0.9-2.7-2.3-2.7c-1.4,0-2.4,1-2.4,2.7V36h-5.7V19.8h5.7v2.3
	c1.1-1.4,2.6-2.6,4.9-2.6c3.4,0,5.5,2.3,5.5,6v10.6H123V27.2z M104.8,14.1h5.9v4.2h-5.9V14.1z M99.8,29.8c0,1.1,0.5,1.6,1.6,1.6
	c0.8,0,1.5-0.2,2.2-0.5v4.5c-1,0.6-2.4,0.9-4,0.9c-3.4,0-5.5-1.5-5.5-5.4v-6.6h-1.9v-4.6h1.9v-4.1h5.7v4.1h3.8v4.6h-3.8V29.8z
	 M85.4,14.1h5.7V36h-5.7V14.1z M77.7,33.8c-1,1.3-2.5,2.6-4.9,2.6c-3.4,0-5.5-2.3-5.5-6V19.8H73v8.8c0,1.8,0.9,2.7,2.3,2.7
	s2.4-1,2.4-2.7v-8.8h5.7V36h-5.7V33.8z M66.3,30.9c0,3.6-2.7,5.4-6.6,5.4c-2.7,0-5.4-0.8-7.7-2.4l2.1-3.5c1.9,1.2,3.9,1.9,5.6,1.9
	c1,0,1.4-0.3,1.4-0.9s-0.9-0.9-2.6-1.4c-3.2-0.9-5.8-1.9-5.8-5.3s2.8-5.4,6.5-5.4c2.4,0,4.8,0.7,6.7,1.9L64,24.8
	c-1.7-0.9-3.5-1.5-4.8-1.5c-0.9,0-1.3,0.3-1.3,0.8c0,0.6,0.9,0.9,2.6,1.4C63.8,26.6,66.3,27.7,66.3,30.9z M45.8,27.2
	c0-1.8-0.9-2.7-2.3-2.7s-2.4,1-2.4,2.7V36h-5.7V19.8h5.7v2.3c1.1-1.4,2.6-2.6,4.9-2.6c3.4,0,5.5,2.3,5.5,6v10.6h-5.7V27.2z
	 M25.2,36.4c-5.2,0-8.9-3.8-8.9-8.5c0-4.6,3.8-8.5,9-8.5s8.9,3.8,8.9,8.5C34.2,32.5,30.4,36.4,25.2,36.4z M25.2,24.2
	c-2.1,0-3.4,1.6-3.4,3.7c0,2,1.4,3.7,3.5,3.7s3.4-1.7,3.4-3.7C28.7,25.9,27.2,24.2,25.2,24.2z M9.7,24.2c-2.1,0-3.3,1.6-3.3,3.7
	s1.3,3.7,3.2,3.7c1.4,0,2.2-0.7,3.1-1.7l3.9,2.8c-1.5,2.2-3.7,3.7-7.2,3.7c-4.9,0-8.5-3.8-8.5-8.5c0-4.6,3.6-8.5,8.7-8.5
	c3.3,0,5.5,1.4,6.9,3.6l-3.8,2.8C11.9,24.7,11,24.2,9.7,24.2z M110.6,36h-5.7V19.8h5.7V36z"/>
<path class="st1" d="M138,0h33l-9,15h-32L138,0z"/>
<path class="st2" d="M156.3,9.4h-1v2h-1.9v-7h3c1.8,0,2.9,0.9,2.9,2.5S158,9.4,156.3,9.4z M156.2,6h-0.9v1.8h0.9
	c0.7,0,1.1-0.4,1.1-0.9C157.3,6.3,156.9,6,156.2,6z M148.8,11.4l-1.4-4l-1.4,4h-1.7l-2.3-7h2l1.2,4l1.3-4.1h1.7l1.3,4.1l1.2-4h2
	l-2.3,7H148.8z"/>
</svg>
