<?xml version="1.0" encoding="UTF-8"?>
<svg id="SVGDoc" width="171" height="41" xmlns="http://www.w3.org/2000/svg" version="1.1" xmlns:xlink="http://www.w3.org/1999/xlink" xmlns:avocode="https://avocode.com/" viewBox="0 0 171 41"><defs></defs><desc>Generated with Avocode.</desc><g><g><title>logo_dark</title><g><title>consulting_1_</title><g><title>consulting</title><g><title>Group 6730</title><g><title>Path 3181</title><path d="M141.17688,26.971c0,-1.8 -1.38,-3.12 -3.3,-3.12c-1.95,0 -3.33,1.35 -3.33,3.21c0,1.8 1.38,3.12 3.33,3.12c1.92001,0 3.3,-1.351 3.3,-3.21zM141.08688,19.772h5.69901v12.33c0,2.969 -0.66101,5.039 -2.10001,6.479c-1.47,1.469 -3.75,2.279 -7.14,2.279c-3.151,0 -5.79,-0.659 -8.13,-1.859l1.83,-3.78c1.74001,0.96 3.48,1.53 5.67,1.53c2.84999,0 4.25999,-1.41 4.25999,-3.99v-0.63c-1.14099,1.321 -2.63999,2.431 -5.00999,2.431c-3.98999,0 -7.2,-2.881 -7.2,-7.59c0,-4.68 3.27101,-7.56 7.02,-7.56c2.431,0 3.871,0.989 5.101,2.279zM127.82688,25.381v10.619h-5.7v-8.79c0,-1.769 -0.929,-2.729 -2.28,-2.729c-1.379,0 -2.399,0.959 -2.399,2.729v8.79h-5.7v-16.229h5.7v2.28c1.049,-1.351 2.549,-2.64 4.859,-2.64c3.45,0 5.52,2.279 5.52,5.97zM104.06789,19.771h5.7v16.229h-5.7zM103.94688,14.101h5.94v4.2h-5.94zM98.90688,19.77h3.78v4.59h-3.78v5.49c0,1.14 0.51,1.619 1.561,1.619c0.75,0 1.47,-0.21 2.159,-0.539v4.47c-1.02,0.57 -2.369,0.93 -3.96,0.93c-3.419,0 -5.459,-1.5 -5.459,-5.37v-6.6h-1.92v-4.59h1.92v-4.109h5.699zM84.53788,14.101h5.7v21.899h-5.7zM76.85888,19.771h5.699v16.229h-5.699v-2.219c-1.049,1.35 -2.549,2.58 -4.86,2.58c-3.45,0 -5.52,-2.281 -5.52,-5.97v-10.62h5.7v8.79c0,1.769 0.93,2.729 2.31,2.729c1.349,0 2.37,-0.959 2.37,-2.729zM59.69787,25.71c3.21,0.931 5.76,2.011 5.76001,5.22c0,3.57 -2.67,5.43 -6.63,5.43c-2.73,0 -5.43,-0.78 -7.68,-2.4l2.13,-3.45c1.86,1.23 3.9,1.86 5.58,1.86c0.99,0 1.44,-0.3 1.44,-0.93c0,-0.63 -0.9,-0.931 -2.61,-1.38c-3.21,-0.87 -5.76,-1.92 -5.76,-5.25c0,-3.45 2.76,-5.37 6.51,-5.37c2.37,0 4.83,0.691 6.689,1.891l-1.949,3.6c-1.681,-0.931 -3.511,-1.5 -4.8,-1.5c-0.87,0 -1.32,0.33 -1.32,0.84c0,0.629 0.93,0.929 2.64,1.439zM50.63888,25.381v10.619h-5.7v-8.79c0,-1.769 -0.93,-2.729 -2.28,-2.729c-1.38,0 -2.4,0.959 -2.4,2.729v8.79h-5.7v-16.229h5.7v2.28c1.05,-1.351 2.55,-2.64 4.86,-2.64c3.449,0 5.52,2.279 5.52,5.97zM27.80888,27.901c0,-1.98 -1.44,-3.66 -3.45,-3.66c-2.07,0 -3.39,1.65 -3.39,3.66c0,1.979 1.44,3.66 3.45,3.66c2.07,0 3.39,-1.651 3.39,-3.66zM33.35788,27.9c0,4.62 -3.78,8.489 -9,8.489c-5.189,0 -8.939,-3.809 -8.939,-8.489c0,-4.62 3.78,-8.489 9,-8.489c5.19,0 8.94,3.81 8.939,8.489zM11.84888,29.88l3.87,2.79c-1.5,2.22 -3.66,3.72 -7.23,3.72c-4.889,0 -8.489,-3.84 -8.489,-8.489c0,-4.59 3.57,-8.46 8.7,-8.46c3.33,0 5.55,1.441 6.93,3.63l-3.81,2.76c-0.78,-1.08 -1.71,-1.59 -2.94,-1.59c-2.07,0 -3.33,1.62 -3.33,3.66c0,2.099 1.32,3.689 3.24,3.689c1.35,0 2.159,-0.659 3.059,-1.71z" fill="#ffffff" fill-opacity="1"></path></g></g></g></g><g><title>Rectangle_34_1_</title><g><title>Rectangle_34</title><g><title>Group 6731</title><g><title>Path 3182</title><path d="M137.12988,0v0l-8,14.999v0h32v0l9,-14.999v0z" fill="#ffd61f" fill-opacity="1"></path></g></g></g></g><g><title>WP_1_</title><g><title>WP</title><g><title>Group 6732</title><g><title>Path 3183</title><path d="M155.35788,7.845h-0.91901v-1.849h0.909c0.69901,0 1.119,0.319 1.119,0.919c0.00002,0.569 -0.41998,0.93 -1.10899,0.93zM152.49889,4.366v6.996h1.939v-1.998h0.959c1.739,0 3.009,-0.87 3.009,-2.52c0,-1.568 -1.13901,-2.478 -2.908,-2.478zM148.69489,8.414l-1.35001,-4.067h-1.66901l-1.349,4.067l-1.22,-4.048h-2.049l2.339,7.047h1.688l1.399,-4.028l1.409,4.028h1.689l2.339,-7.047h-2.009z" fill="#082471" fill-opacity="1"></path></g></g></g></g></g></g></svg>